<svg width="32" height="32" viewBox="0 0 100 100" fill="none" xmlns="http://www.w3.org/2000/svg">
    <defs>
        <linearGradient id="faviconGrad" x1="0%" y1="0%" x2="100%" y2="100%">
            <stop offset="0%" style="stop-color:#00e5ff;stop-opacity:1" />
            <stop offset="100%" style="stop-color:#0066ff;stop-opacity:1" />
        </linearGradient>
    </defs>
    <path d="M35 20C24 20 15 29 15 40C15 55 35 80 35 80C35 80 55 55 55 40C55 29 46 20 35 20ZM35 50C29.5 50 25 45.5 25 40C25 34.5 29.5 30 35 30C40.5 30 45 34.5 45 40C45 45.5 40.5 50 35 50Z" fill="url(#faviconGrad)"/>
    <path d="M55 40Q65 20 75 40Q85 60 95 40" stroke="url(#faviconGrad)" stroke-width="10" stroke-linecap="round" fill="none"/>
    <path d="M72 45L80 35L78 50L85 40" stroke="white" stroke-width="3" stroke-linecap="round" stroke-linejoin="round"/>
</svg>
